# xmcd
#
# Track frame offsets:
#	150
#	15692
#	34597
#	47827
#	62215
#	71865
#	84627
#	100287
#	114100
#	116122
#	132115
#	152265
#	173860
#	185672
#	213580
#	224900
#	241772
#	284082
#
# Disc length: 3944 seconds
#
# Revision: 7
# Processed by: cddbd v1.5.1PL2 Copyright (c) Steve Scherf et al.
# Submitted via: audiograbber 1.83.01
#
DISCID=0f0f6612
DTITLE=Various Artist - Moods Of La Habana - CD 4
DYEAR=1999
DGENRE=Latin
TTITLE0=Mechanical Piano - Marcha Fox
TTITLE1=Trío Tesis - Si Me Pudieras Querer
TTITLE2=Trío Tesis - La Gloria Eres Tú
TTITLE3=Trío Tesis - Bilongo (La Negra Tomaso)
TTITLE4=Trío Tesis - Dulce Embeleso
TTITLE5=Trío Tesis - Pedacito De Ciela
TTITLE6=Trío Tesis - Noche Cubana
TTITLE7=Trío Tesis - Reclamo Místico
TTITLE8=At The Covered Market, Habana Vieja - Loud And Vociferous
TTITLE9=Dúo Síncopa - En Guantánamo
TTITLE10=Dúo Síncopa - El Camisón De Pepa
TTITLE11=Dúo Síncopa - Ahora Me Da Pena
TTITLE12=Dúo Síncopa - Estoy Hecho Tierra
TTITLE13=Dúo Síncopa - Chan Chan
TTITLE14=Tambores De Bejucal - Ciclo De La Rumba
TTITLE15=Tambores De Bejucal - Yoruba
TTITLE16=Tambores De Bejucal - Carnaval
TTITLE17=Frank Emilio Flynn - Somebody Loves Me
EXTD=
EXTT0=Mechanical Piano
EXTT1=Trío Tesis
EXTT2=Trío Tesis
EXTT3=Trío Tesis
EXTT4=Trío Tesis
EXTT5=Trío Tesis
EXTT6=Trío Tesis
EXTT7=Trío Tesis
EXTT8=Covered Market
EXTT9=Dúo Síncopa
EXTT10=Dúo Síncopa
EXTT11=Dúo Síncopa
EXTT12=Dúo Síncopa
EXTT13=Dúo Síncopa
EXTT14=Tambores de Bejucal
EXTT15=Tambores de Bejucal
EXTT16=Tambores de Bejucal
EXTT17=Flynn Frank Emilio
PLAYORDER=
